<?xml version="1.0" encoding="UTF-8"?><!DOCTYPE svg PUBLIC "-//W3C//DTD SVG 1.1//EN"
  "http://www.w3.org/Graphics/SVG/1.1/DTD/svg11.dtd">
<svg xmlns="http://www.w3.org/2000/svg" xmlns:xlink="http://www.w3.org/1999/xlink">
  <defs>
    <clipPath id="clip0">
      <path fill="#fff" transform="translate(.08 .92)" d="M0 0h17.04v19.2H0z"/>
    </clipPath>

    <clipPath id="clip0">
      <path fill="#fff" transform="translate(0 .96)" d="M0 0h20.83v21.12H0z"/>
    </clipPath>
  </defs>
  <symbol id="icon-bicycle" viewBox="0 0 26 25">
    <path
      d="M19.7 21.88a4.8 4.8 0 01-2.6-.76 4.54 4.54 0 01-1.71-2.02 4.33 4.33 0 011.01-4.9 4.85 4.85 0 015.1-.97c.84.34 1.57.92 2.09 1.66a4.37 4.37 0 01-.58 5.67 4.77 4.77 0 01-3.3 1.32zm0-7.43c-.6 0-1.19.17-1.69.5-.5.32-.9.78-1.12 1.31a2.82 2.82 0 00.66 3.2 3.16 3.16 0 003.32.64c.56-.23 1.03-.6 1.37-1.09a2.85 2.85 0 00-.38-3.7 3.11 3.11 0 00-2.16-.86zM6.3 21.88a4.8 4.8 0 01-2.6-.76 4.54 4.54 0 01-1.72-2.02A4.33 4.33 0 013 14.2a4.85 4.85 0 015.1-.97c.85.34 1.58.92 2.1 1.66a4.37 4.37 0 01-.6 5.67 4.77 4.77 0 01-3.3 1.32zm0-7.43c-.6 0-1.2.17-1.7.5-.5.32-.89.78-1.12 1.31a2.83 2.83 0 00.66 3.2 3.16 3.16 0 003.32.64c.56-.23 1.04-.6 1.37-1.09a2.85 2.85 0 00-.38-3.7 3.11 3.11 0 00-2.15-.86zM16.25 6.25a1.68 1.68 0 001.15-.46 1.55 1.55 0 00.36-1.7 1.54 1.54 0 00-.88-.85c-.2-.08-.4-.12-.62-.11a1.68 1.68 0 00-1.15.45 1.56 1.56 0 00-.48 1.1 1.51 1.51 0 00.47 1.1 1.63 1.63 0 001.15.47z"/>
    <path
      d="M18.66 9.38h-2.22a.2.2 0 01-.1-.03.2.2 0 01-.08-.08l-1.6-2.84a1.6 1.6 0 00-2.5-.38L8.58 9.5c-.3.3-.47.69-.47 1.1 0 .85.63 1.15.93 1.32 1.45.8 2.47 1.39 3.03 1.71a.2.2 0 01.1.17v3.37a.81.81 0 001.1.76.82.82 0 00.46-.43c.04-.1.06-.2.06-.3v-4.2a.76.76 0 00-.34-.64l-1.87-1.3a.2.2 0 01-.09-.14.19.19 0 01.06-.15l2.13-2.19a.2.2 0 01.17-.06.2.2 0 01.15.1l1.11 1.93a.8.8 0 00.3.29c.13.07.27.1.41.1h2.85a.84.84 0 00.59-.23.78.78 0 00.22-.58c-.02-.42-.4-.74-.84-.74z"/>
  </symbol>
  <symbol id="icon-bus" viewBox="0 0 18 21">
    <g clip-path="url(#clip0)">
      <path
        d="M4.34 13.95c0-.38-.14-.7-.42-.97a1.4 1.4 0 00-1-.4c-.4 0-.73.13-1 .4-.28.27-.42.59-.42.97s.14.7.42.97c.27.27.6.4 1 .4s.73-.13 1-.4c.28-.27.42-.6.42-.97zm11.36 0c0-.38-.14-.7-.42-.97a1.4 1.4 0 00-1-.4c-.4 0-.73.13-1 .4-.28.27-.42.59-.42.97s.14.7.41.97c.28.27.61.4 1 .4.4 0 .73-.13 1.01-.4s.42-.6.42-.97zm-.51-4.24l-.8-4.12a.7.7 0 00-.25-.4.7.7 0 00-.45-.16H3.5a.7.7 0 00-.45.16.7.7 0 00-.25.4l-.8 4.12c-.04.21.02.4.16.56.14.17.32.25.54.25h11.78c.22 0 .4-.08.54-.25.14-.16.2-.35.16-.56zm-2.51-6.56a.52.52 0 00-.53-.51h-7.1a.52.52 0 00-.38.14c-.1.1-.15.23-.15.37 0 .14.05.26.15.36.1.1.23.15.38.15h7.1a.52.52 0 00.53-.51zm4.43 7.77v6.46H15.7v1.37c0 .38-.14.7-.42.97-.28.27-.61.4-1 .4-.4 0-.73-.13-1-.4a1.3 1.3 0 01-.42-.97v-1.37H4.34v1.37c0 .38-.14.7-.42.97-.27.27-.6.4-1 .4s-.73-.13-1-.4a1.3 1.3 0 01-.42-.97v-1.37H.08v-6.46c0-.8.1-1.6.28-2.4L1.5 3.67c.07-.55.43-1.04 1.08-1.47.66-.42 1.5-.73 2.55-.95A17.3 17.3 0 018.6.92c1.26 0 2.42.1 3.46.32 1.05.22 1.9.53 2.55.95.66.43 1.02.92 1.09 1.47l1.16 4.87c.17.73.25 1.52.25 2.39z"/>
    </g>

  </symbol>
  <symbol id="icon-businessman">
    <path
      d="M23.38 23.24V19.9a5.85 5.85 0 00-2.81-5.09c-.94-.67-2.95-.8-3.9-.8l-2.13 2.28.8 1.74v4.02L14 23.5l-1.34-1.47v-4.02l.94-1.74L11.32 14c-1.07 0-3.08.13-4.02.8a5.53 5.53 0 00-2 2.28 5.15 5.15 0 00-.68 2.81v3.35s3.49 1.48 9.38 1.48c5.9 0 9.38-1.48 9.38-1.48zM14 3.42c-2.54 0-4.02 2.41-3.62 5.09.4 2.68 1.74 4.55 3.62 4.55 1.88 0 3.21-1.87 3.62-4.55.4-2.81-1.08-5.1-3.62-5.1z"
      fill="#132576"/>
  </symbol>
  <symbol id="icon-call" viewBox="0 0 18 18">
    <path
      d="M8.97 7.42c0 .2.16.34.35.34.38 0 .7.32.7.7 0 .18.15.33.34.33.19 0 .34-.15.34-.33 0-.76-.62-1.37-1.38-1.37a.34.34 0 00-.35.33zm5.56 1.37c.2 0 .34-.15.34-.33 0-3.03-2.49-5.5-5.55-5.5a.34.34 0 00-.35.34c0 .19.16.34.35.34a4.85 4.85 0 014.87 4.82c0 .18.15.33.34.33z"/>
    <path
      d="M12.1 8.46c0 .18.16.33.35.33.18 0 .34-.15.34-.33 0-1.9-1.56-3.44-3.47-3.44a.34.34 0 00-.35.34c0 .2.16.34.35.34a2.78 2.78 0 012.78 2.76zM9.32.9a.34.34 0 00-.35.34c0 .18.16.33.35.33a6.93 6.93 0 016.96 6.89c0 .18.15.33.34.33.19 0 .34-.15.34-.33A7.61 7.61 0 009.32.9zm3.33 11.11l-.45.24c-.75.41-1.34 1.53-2.27.69L7.5 10.5 5.4 8.46c-1.06-1.34.13-1.65.54-2.4l.24-.44a2.57 2.57 0 00-.45-3.1c-.5-.49-1.16-.76-1.87-.76-.7 0-1.37.27-1.87.76l-.17.18c-.93.91-1.03 2.48-.3 4.42A16.39 16.39 0 005.4 12.8c2.77 2.73 5.85 4.31 8.06 4.31.88 0 1.62-.25 2.14-.77l.18-.17a2.6 2.6 0 000-3.7c-.82-.81-2.1-1-3.13-.45z"/>
  </symbol>
  <symbol id="icon-fb" viewBox="0 0 11 21">
    <path
      d="M7.49 20.81H2.13v-9.67H0V6.35h2.07c-.16-2.17.23-3.75 1.2-4.83A4.88 4.88 0 016.86 0h3.75v4.61H7.67a4.7 4.7 0 00-.2 1.74h3.15v4.79H7.46l.02 9.67zM3.32 19.7h2.97V10h3.14V7.5H6.29v-.57c0-1.5 0-2.84.78-3.34l.15-.1h2.2V1.12H6.9a3.82 3.82 0 00-2.74 1.13c-.79.92-1.11 2.47-.87 4.6l.08.63h-2.2V10h2.15v9.68z"/>
  </symbol>
  <symbol id="icon-inst" viewBox="0 0 24 24">
    <path
      d="M17.28 2.4a4.33 4.33 0 014.32 4.32v10.56a4.33 4.33 0 01-4.32 4.32H6.72a4.33 4.33 0 01-4.31-4.32V6.72A4.33 4.33 0 016.72 2.4h10.56zm0-1.44H6.72A5.76 5.76 0 00.96 6.72v10.56a5.76 5.76 0 005.76 5.76h10.56a5.76 5.76 0 005.76-5.76V6.72A5.76 5.76 0 0017.28.96z"/>
    <path
      d="M12.01 7.756a4.253 4.253 0 11-4.254 4.253 4.243 4.243 0 014.253-4.253zm0-1.44a5.693 5.693 0 105.682 5.693 5.681 5.681 0 00-5.683-5.693zM17.904 7.413a1.286 1.286 0 100-2.573 1.286 1.286 0 000 2.573z"/>
  </symbol>
  <symbol id="icon-location" viewBox="0 0 21 21">
    <path
      d="M10.5 0a7.88 7.88 0 00-7.88 7.88c0 5.05 3.8 7.26 4.65 8.27C9.29 18.58 9.4 21 10.5 21s1.21-2.42 3.23-4.85c.84-1 4.64-3.22 4.64-8.27A7.88 7.88 0 0010.5 0zm0 13.13a5.25 5.25 0 110-10.5 5.25 5.25 0 010 10.5zm0-7.88a2.63 2.63 0 100 5.25 2.63 2.63 0 000-5.25z"
      fill="#FFD74B"/>
    <circle cx="10.5" cy="7.88" fill="#161C35" r=".88"/>
  </symbol>
  <symbol id="icon-mail" viewBox="0 0 16 14">
    <path
      d="M1.26 2.6l6 3.76c.2.13.46.19.72.19.27 0 .53-.06.73-.19l6-3.76c.39-.25.76-1.2.04-1.2H1.22c-.72 0-.35.95.04 1.2zm13.63 2.06L8.71 8.4a1.2 1.2 0 01-.73.2 1.2 1.2 0 01-.72-.2L1.1 4.66c-.31-.2-.31.03-.31.2v6.8c0 .4.45.94.8.94h12.8c.35 0 .8-.54.8-.93v-6.8c0-.18 0-.4-.3-.21z"/>
  </symbol>
  <symbol id="icon-plane" viewBox="0 0 21 23">
    <g clip-path="url(#clip0)">
      <path
        d="M16.78 2.1c-.73.17-1.46.34-1.73.82l-2.1 4.2L1.62 9.8l-.46 1.34 8.66.82-1.47 3.63-3.28.78-.83 1.43 2.37.26.27 1.17c.12.41.55.69.9.6l1.1-.26 1.27 2.16.83-1.43-.81-3.5 2.37-3.03 4.54 7.96.91-1.04-2.79-12.07 2.57-3.9c.27-.47.1-1.25-.09-2.03-.09-.39-.54-.7-.9-.6z"/>
    </g>

  </symbol>
  <symbol id="icon-run" viewBox="0 0 21 24">
    <path
      d="M14.98 5.76c.95 0 1.72-.86 1.72-1.92s-.77-1.92-1.72-1.92-1.73.86-1.73 1.92.78 1.92 1.73 1.92zM13.92 10.53c.2.33.48.58.81.72.34.15.7.17 1.04.08l2.86-.8-.42-1.86-2.85.8-1.2-1.99a1.73 1.73 0 00-1.09-.82l-3.3-.74a1.56 1.56 0 00-1.1.16c-.34.18-.61.49-.78.87l-1.43 3.18 1.54.86L9.43 7.8l1.69.38-4.38 8.14H2.93v1.92h3.81c.6 0 1.17-.36 1.48-.93l1.65-3.07 4.45 1 1.56 5.22 1.63-.6-1.56-5.23c-.1-.33-.27-.61-.5-.84-.22-.22-.5-.37-.8-.44l-2.61-.58 1.52-2.84.36.6z"/>
  </symbol>
  <symbol id="icon-telephone" viewBox="0 0 19 17">
    <path
      d="M9.5 1.09c-2.8 0-5.6.47-6.62 1.41-.84.78-1.12 2.16-1.22 3.04l-.01.12c0 .34.3.62.65.62l2.57-.2h.07c.35-.02.64-.29.64-.63V4.24c0-.38.32-.68.72-.68h6.4c.4 0 .72.3.72.68v1.21c0 .34.29.61.64.62l.07.01 2.57.2c.36 0 .65-.28.65-.62l-.01-.12c-.1-.88-.38-2.26-1.22-3.04C15.1 1.56 12.3 1.1 9.5 1.1zm0 8.03c-.72 0-1.3.55-1.3 1.23 0 .69.58 1.24 1.3 1.24.72 0 1.3-.55 1.3-1.24 0-.68-.58-1.23-1.3-1.23zm-.98-2.78v-.77a.8.8 0 00-.82-.78.8.8 0 00-.82.78v.77l-4.4 4.45c-.31.28-.5.67-.5 1.1v1.24c0 .69.58 1.24 1.3 1.24h.33v.77c0 .43.37.77.82.77a.8.8 0 00.82-.77v-.77h8.5v.77c0 .43.37.77.82.77a.8.8 0 00.82-.77v-.77h.32c.73 0 1.31-.55 1.31-1.24V11.9c0-.43-.19-.82-.5-1.1l-4.4-4.45v-.77a.8.8 0 00-.82-.78.8.8 0 00-.82.78v.77H8.52zm.98 1.54c1.45 0 2.62 1.1 2.62 2.47a2.55 2.55 0 01-2.62 2.47 2.55 2.55 0 01-2.62-2.47A2.55 2.55 0 019.5 7.88z"/>
  </symbol>
  <symbol id="icon-user" viewBox="0 0 14 14">
    <path
      d="M4.38 3.93A2.7 2.7 0 007 6.69a2.7 2.7 0 002.63-2.76A2.7 2.7 0 007 1.17a2.7 2.7 0 00-2.63 2.76zm7.29 8.9h.58v-.61a4.2 4.2 0 00-4.08-4.3H5.83a4.2 4.2 0 00-4.08 4.3v.61h9.92z"/>
  </symbol>
  <symbol id="icon-vk" viewBox="0 0 23 12">
    <path
      d="M17.77 11.83a2.98 2.98 0 01-1.55-.47 7.56 7.56 0 01-1.32-1.15c-.32-.33-.87-.88-1.07-.88-.21 0-.36.69-.35 1.18 0 .33-.12.66-.35.9-.26.22-.57.35-.9.38H10.8c-2.05-.05-4-.85-5.51-2.25C2.56 7 .2 2.18.12 1.97a1.01 1.01 0 01.1-1.1C.52.61.88.48 1.25.5h3.12c.24.04.48.13.7.26.2.14.36.33.46.55.32.7.7 1.36 1.1 2 .97 1.5 1.4 1.85 1.56 1.92.17-.7.22-1.43.14-2.15.03-.33-.03-.66-.15-.96a.98.98 0 00-.58-.22l-.54-.51c-.1-.5.44-.93.82-1.1A6.38 6.38 0 0110.2.02h.52c.54-.01 1.07.04 1.6.15 1.26.27 1.21 1.3 1.16 2.49 0 .34-.03.75-.03 1.21v.36c-.03.33-.01.66.06.98a6.8 6.8 0 001.54-1.86c.43-.67.8-1.38 1.13-2.1a1.18 1.18 0 011.18-.72h3.46c.74 0 1.18.22 1.36.64.18.42.12 1.25-1.75 3.46l-.74.85a5.5 5.5 0 00-.92 1.19c.28.32.6.6.95.85.85.65 1.6 1.43 2.22 2.3a1.2 1.2 0 01.2 1.27 1.71 1.71 0 01-1.4.75l-2.81.03-.17-.03zM13.83 8.2c.66 0 1.24.6 1.86 1.22.33.37.7.7 1.11.97.31.21.67.32 1.04.32h.07l2.82-.04c.14 0 .28-.04.4-.1l-.07-.12a9.86 9.86 0 00-1.99-2.04c-.88-.75-1.33-1.1-1.39-1.68-.05-.58.37-1.08 1.2-2.04l.74-.83a8.05 8.05 0 001.52-2.21 4.16 4.16 0 00-.5 0H17.4a.4.4 0 00-.18 0c-.34.8-.75 1.56-1.22 2.29-1.4 2.11-2.06 2.4-2.53 2.4a.88.88 0 01-.41-.1c-.75-.44-.75-1.39-.7-2.08v-.32c0-.49 0-.9.03-1.27.06-1.26 0-1.27-.28-1.33-.45-.1-.91-.14-1.38-.12h-.5c-.48-.01-.95.01-1.42.07.07.05.13.12.19.19.3.49.46 1.06.43 1.63.1 1.24.05 2.85-.74 3.24-.14.07-.29.1-.44.1-.7 0-1.38-.66-2.54-2.44-.45-.69-.85-1.4-1.2-2.14l-.05-.08a.9.9 0 00-.24-.08H1.2c.44.92 2.51 4.97 4.84 7.09 1.3 1.2 2.99 1.9 4.76 1.97h1.37a.74.74 0 00.2-.07v-.07c0-.2 0-1.95 1.17-2.25.1-.04.19-.06.29-.08z"/>
  </symbol>
</svg>
